# xmcd
#
# Track frame offsets: 
#        150
#        14808
#        40518
#        69157
#        83582
#        101946
#        127766
#        147310
#        182565
#        212880
#        241346
#        262194
#
# Disc length: 3954 seconds
#
# Revision: 0
# Processed by: cddbd v1.5.2PL0 Copyright (c) Steve Scherf et al.
# Submitted via: ExactAudioCopyFreeDBPlugin 1.0
#
DISCID=a50f700c
DTITLE=Daniel Blanc and Co - Concert d'un soir
DYEAR=2011
DGENRE=Blues
TTITLE0=Roberto
TTITLE1=Matin sur le lac
TTITLE2=Chante français
TTITLE3=Matin de brouillard
TTITLE4=Parfum de guano
TTITLE5=Mercedes rose
TTITLE6=Made in USA
TTITLE7=Rêve de gosse
TTITLE8=Féria d'avril
TTITLE9=Racine
TTITLE10=Rock star
TTITLE11=Le boogie de la vie
EXTD=
EXTT0=
EXTT1=
EXTT2=
EXTT3=
EXTT4=
EXTT5=
EXTT6=
EXTT7=
EXTT8=
EXTT9=
EXTT10=
EXTT11=
PLAYORDER=
